<svg width="8" height="8" viewBox="0 0 8 8" fill="none" xmlns="http://www.w3.org/2000/svg">
<path d="M4.31973 7.03996H3.67973C3.5916 7.03996 3.51973 6.96871 3.51973 6.87996V4.83559L1.74285 5.85121C1.66723 5.89496 1.57035 5.86871 1.52598 5.79309L1.20598 5.24934C1.1841 5.21246 1.17785 5.16871 1.1891 5.12746C1.19973 5.08621 1.2266 5.05121 1.26348 5.02996L3.04035 3.99996L1.26348 2.97059C1.2266 2.94934 1.19973 2.91371 1.1891 2.87246C1.17785 2.83121 1.1841 2.78746 1.20535 2.75059L1.52535 2.20684C1.56973 2.13121 1.66723 2.10559 1.74285 2.14934L3.51973 3.16434V1.11996C3.51973 1.03184 3.5916 0.959961 3.67973 0.959961H4.31973C4.40848 0.959961 4.47973 1.03184 4.47973 1.11996V3.16434L6.2566 2.14934C6.33223 2.10559 6.4291 2.13121 6.47348 2.20684L6.79348 2.75059C6.81535 2.78746 6.8216 2.83121 6.81035 2.87246C6.79973 2.91371 6.77285 2.94934 6.73598 2.97059L4.9591 3.99996L6.73598 5.02934C6.77223 5.05121 6.7991 5.08621 6.81035 5.12746C6.82098 5.16871 6.81535 5.21246 6.79348 5.24934L6.47348 5.79309C6.4291 5.86871 6.33223 5.89496 6.2566 5.85059L4.47973 4.83559V6.87996C4.47973 6.96871 4.40848 7.03996 4.31973 7.03996Z" fill="#343A40"/>
</svg>
