<svg width="14" height="14" viewBox="0 0 14 14" fill="none" xmlns="http://www.w3.org/2000/svg">
<path d="M5.00065 0.164062V1.4974H9.00065V0.164062H10.334V1.4974H13.0007C13.3689 1.4974 13.6673 1.79588 13.6673 2.16406V12.8307C13.6673 13.1989 13.3689 13.4974 13.0007 13.4974H1.00065C0.632464 13.4974 0.333984 13.1989 0.333984 12.8307V2.16406C0.333984 1.79588 0.632464 1.4974 1.00065 1.4974H3.66732V0.164062H5.00065ZM12.334 6.83073H1.66732V12.1641H12.334V6.83073ZM3.66732 2.83073H1.66732V5.4974H12.334V2.83073H10.334V4.16406H9.00065V2.83073H5.00065V4.16406H3.66732V2.83073Z" fill="#4D596A"/>
</svg>
