<svg width="6" height="8" viewBox="0 0 6 8" fill="none" xmlns="http://www.w3.org/2000/svg">
<path d="M3.31997 7.03996H2.67997C2.59185 7.03996 2.51997 6.96871 2.51997 6.87996V4.83559L0.743098 5.85121C0.667473 5.89496 0.570598 5.86871 0.526223 5.79309L0.206223 5.24934C0.184348 5.21246 0.178098 5.16871 0.189348 5.12746C0.199973 5.08621 0.226848 5.05121 0.263723 5.02996L2.0406 3.99996L0.263723 2.97059C0.226848 2.94934 0.199973 2.91371 0.189348 2.87246C0.178098 2.83121 0.184348 2.78746 0.205598 2.75059L0.525598 2.20684C0.569973 2.13121 0.667473 2.10559 0.743098 2.14934L2.51997 3.16434V1.11996C2.51997 1.03184 2.59185 0.959961 2.67997 0.959961H3.31997C3.40872 0.959961 3.47997 1.03184 3.47997 1.11996V3.16434L5.25685 2.14934C5.33247 2.10559 5.42935 2.13121 5.47372 2.20684L5.79372 2.75059C5.8156 2.78746 5.82185 2.83121 5.8106 2.87246C5.79997 2.91371 5.7731 2.94934 5.73622 2.97059L3.95935 3.99996L5.73622 5.02934C5.77247 5.05121 5.79935 5.08621 5.8106 5.12746C5.82122 5.16871 5.8156 5.21246 5.79372 5.24934L5.47372 5.79309C5.42935 5.86871 5.33247 5.89496 5.25685 5.85059L3.47997 4.83559V6.87996C3.47997 6.96871 3.40872 7.03996 3.31997 7.03996Z" fill="#DEE2E6"/>
</svg>
