<svg width="18" height="18" viewBox="0 0 18 18" fill="none" xmlns="http://www.w3.org/2000/svg">
<path d="M9.00734 17.055C8.53484 17.055 8.06984 16.8975 7.70234 16.5825L6.51734 15.57C6.39734 15.465 6.09734 15.36 5.93984 15.36H4.62734C3.51734 15.36 2.61734 14.46 2.61734 13.35V12.0675C2.61734 11.91 2.51234 11.61 2.41484 11.4975L1.39484 10.2975C0.779844 9.56999 0.779844 8.42999 1.39484 7.69499L2.41484 6.49499C2.51234 6.38249 2.61734 6.08249 2.61734 5.92499V4.64999C2.61734 3.53999 3.51734 2.63999 4.62734 2.63999H5.92484C6.08234 2.63999 6.37484 2.52749 6.50234 2.42249L7.68734 1.40999C8.42234 0.78749 9.56984 0.78749 10.3048 1.40999L11.4898 2.42249C11.6098 2.52749 11.9173 2.63249 12.0748 2.63249H13.3498C14.4598 2.63249 15.3598 3.53249 15.3598 4.64249V5.91749C15.3598 6.07499 15.4723 6.36749 15.5773 6.49499L16.5898 7.67999C17.2198 8.42249 17.2123 9.56999 16.5898 10.2975L15.5773 11.4825C15.4723 11.61 15.3673 11.9025 15.3673 12.06V13.335C15.3673 14.445 14.4673 15.345 13.3573 15.345H12.0823C11.9248 15.345 11.6323 15.4575 11.4973 15.5625L10.3123 16.575C9.94484 16.8975 9.47234 17.055 9.00734 17.055ZM4.62734 3.76499C4.13984 3.76499 3.74234 4.16249 3.74234 4.64999V5.92499C3.74234 6.35249 3.54734 6.89249 3.26984 7.22249L2.24984 8.42249C1.99484 8.72999 1.99484 9.26999 2.24984 9.56999L3.26234 10.7625C3.53234 11.07 3.73484 11.6325 3.73484 12.06V13.3425C3.73484 13.83 4.13234 14.2275 4.61984 14.2275H5.92484C6.34484 14.2275 6.89984 14.43 7.22984 14.7075L8.42234 15.7275C8.72984 15.99 9.26984 15.99 9.57734 15.7275L10.7623 14.715C11.0998 14.43 11.6473 14.235 12.0673 14.235H13.3423C13.8298 14.235 14.2273 13.8375 14.2273 13.35V12.075C14.2273 11.655 14.4298 11.1075 14.7073 10.77L15.7273 9.57749C15.9898 9.26999 15.9898 8.72999 15.7273 8.42249L14.7148 7.23749C14.4298 6.89999 14.2348 6.35249 14.2348 5.93249V4.64999C14.2348 4.16249 13.8373 3.76499 13.3498 3.76499H12.0748C11.6473 3.76499 11.0923 3.56249 10.7623 3.28499L9.56984 2.26499C9.26234 2.00249 8.72984 2.00249 8.41484 2.26499L7.23734 3.28499C6.89984 3.56249 6.35234 3.76499 5.92484 3.76499H4.62734Z" fill="#86868A"/>
<path d="M9 12.6525C8.5875 12.6525 8.25 12.315 8.25 11.9025C8.25 11.49 8.58 11.1525 9 11.1525C9.4125 11.1525 9.75 11.49 9.75 11.9025C9.75 12.315 9.42 12.6525 9 12.6525Z" fill="#86868A"/>
<path d="M9 10.29C8.6925 10.29 8.4375 10.035 8.4375 9.7275V6.0975C8.4375 5.79 8.6925 5.535 9 5.535C9.3075 5.535 9.5625 5.79 9.5625 6.0975V9.72C9.5625 10.035 9.315 10.29 9 10.29Z" fill="#86868A"/>
</svg>
